<?xml version="1.0" encoding="UTF-8" standalone="no"?><svg xmlns="http://www.w3.org/2000/svg" xmlns:xlink="http://www.w3.org/1999/xlink" contentStyleType="text/css" height="663px" preserveAspectRatio="none" style="width:517px;height:663px;background:#FFFFFF;" version="1.1" viewBox="0 0 517 663" width="517px" zoomAndPan="magnify"><defs/><g><!--class Film--><g id="elem_Film"><rect codeLine="1" fill="#F1F1F1" height="162.0781" id="Film" rx="2.5" ry="2.5" style="stroke:#181818;stroke-width:0.5;" width="246" x="264" y="115"/><ellipse cx="367.75" cy="131" fill="#ADD1B2" rx="11" ry="11" style="stroke:#181818;stroke-width:1.0;"/><path d="M370.0938,126.6719 C369.1563,126.2344 368.5625,126.0938 367.6875,126.0938 C365.0625,126.0938 363.0625,128.1719 363.0625,130.8906 L363.0625,132.0156 C363.0625,134.5938 365.1719,136.4844 368.0625,136.4844 C369.2813,136.4844 370.4375,136.1875 371.1875,135.6406 C371.7656,135.2344 372.0938,134.7813 372.0938,134.3906 C372.0938,133.9375 371.7031,133.5469 371.2344,133.5469 C371.0156,133.5469 370.8125,133.625 370.625,133.8125 C370.1719,134.2969 370.1719,134.2969 369.9844,134.3906 C369.5625,134.6563 368.875,134.7813 368.1094,134.7813 C366.0625,134.7813 364.7656,133.6875 364.7656,131.9844 L364.7656,130.8906 C364.7656,129.1094 366.0156,127.7969 367.75,127.7969 C368.3281,127.7969 368.9375,127.9531 369.4063,128.2031 C369.8906,128.4844 370.0625,128.7031 370.1563,129.1094 C370.2188,129.5156 370.25,129.6406 370.3906,129.7656 C370.5313,129.9063 370.7656,130.0156 370.9844,130.0156 C371.25,130.0156 371.5156,129.875 371.6875,129.6563 C371.7969,129.5 371.8281,129.3125 371.8281,128.8906 L371.8281,127.4688 C371.8281,127.0313 371.8125,126.9063 371.7188,126.75 C371.5625,126.4844 371.2813,126.3438 370.9844,126.3438 C370.6875,126.3438 370.4844,126.4375 370.2656,126.75 L370.0938,126.6719 Z " fill="#000000"/><text fill="#000000" font-family="sans-serif" font-size="14" lengthAdjust="spacing" textLength="30" x="388.25" y="135.8467">Film</text><line style="stroke:#181818;stroke-width:0.5;" x1="265" x2="509" y1="147" y2="147"/><rect fill="none" height="6" style="stroke:#C82930;stroke-width:1.0;" width="6" x="272" y="157.6484"/><text fill="#000000" font-family="sans-serif" font-size="14" lengthAdjust="spacing" textLength="57" x="284" y="163.9951">id: Long</text><rect fill="none" height="6" style="stroke:#C82930;stroke-width:1.0;" width="6" x="272" y="173.9453"/><text fill="#000000" font-family="sans-serif" font-size="14" lengthAdjust="spacing" textLength="86" x="284" y="180.292">titre: String</text><rect fill="none" height="6" style="stroke:#C82930;stroke-width:1.0;" width="6" x="272" y="190.2422"/><text fill="#000000" font-family="sans-serif" font-size="14" lengthAdjust="spacing" textLength="73" x="284" y="196.5889">annee: int</text><rect fill="none" height="6" style="stroke:#C82930;stroke-width:1.0;" width="6" x="272" y="206.5391"/><text fill="#000000" font-family="sans-serif" font-size="14" lengthAdjust="spacing" textLength="70" x="284" y="212.8857">duree: int</text><rect fill="none" height="6" style="stroke:#C82930;stroke-width:1.0;" width="6" x="272" y="222.8359"/><text fill="#000000" font-family="sans-serif" font-size="14" lengthAdjust="spacing" textLength="106" x="284" y="229.1826">resume: String</text><rect fill="none" height="6" style="stroke:#C82930;stroke-width:1.0;" width="6" x="272" y="239.1328"/><text fill="#000000" font-family="sans-serif" font-size="14" lengthAdjust="spacing" textLength="158" x="284" y="245.4795">acteurs: List&lt;Acteur&gt;</text><rect fill="none" height="6" style="stroke:#C82930;stroke-width:1.0;" width="6" x="272" y="255.4297"/><text fill="#000000" font-family="sans-serif" font-size="14" lengthAdjust="spacing" textLength="220" x="284" y="261.7764">realisateurs: List&lt;Realisateur&gt;</text><line style="stroke:#181818;stroke-width:0.5;" x1="265" x2="509" y1="269.0781" y2="269.0781"/></g><!--class Séance--><g id="elem_Séance"><rect codeLine="11" fill="#F1F1F1" height="145.7813" id="Séance" rx="2.5" ry="2.5" style="stroke:#181818;stroke-width:0.5;" width="185" x="159.5" y="337"/><ellipse cx="221.75" cy="353" fill="#ADD1B2" rx="11" ry="11" style="stroke:#181818;stroke-width:1.0;"/><path d="M224.0938,348.6719 C223.1563,348.2344 222.5625,348.0938 221.6875,348.0938 C219.0625,348.0938 217.0625,350.1719 217.0625,352.8906 L217.0625,354.0156 C217.0625,356.5938 219.1719,358.4844 222.0625,358.4844 C223.2813,358.4844 224.4375,358.1875 225.1875,357.6406 C225.7656,357.2344 226.0938,356.7813 226.0938,356.3906 C226.0938,355.9375 225.7031,355.5469 225.2344,355.5469 C225.0156,355.5469 224.8125,355.625 224.625,355.8125 C224.1719,356.2969 224.1719,356.2969 223.9844,356.3906 C223.5625,356.6563 222.875,356.7813 222.1094,356.7813 C220.0625,356.7813 218.7656,355.6875 218.7656,353.9844 L218.7656,352.8906 C218.7656,351.1094 220.0156,349.7969 221.75,349.7969 C222.3281,349.7969 222.9375,349.9531 223.4063,350.2031 C223.8906,350.4844 224.0625,350.7031 224.1563,351.1094 C224.2188,351.5156 224.25,351.6406 224.3906,351.7656 C224.5313,351.9063 224.7656,352.0156 224.9844,352.0156 C225.25,352.0156 225.5156,351.875 225.6875,351.6563 C225.7969,351.5 225.8281,351.3125 225.8281,350.8906 L225.8281,349.4688 C225.8281,349.0313 225.8125,348.9063 225.7188,348.75 C225.5625,348.4844 225.2813,348.3438 224.9844,348.3438 C224.6875,348.3438 224.4844,348.4375 224.2656,348.75 L224.0938,348.6719 Z " fill="#000000"/><text fill="#000000" font-family="sans-serif" font-size="14" lengthAdjust="spacing" textLength="52" x="242.25" y="357.8467">Séance</text><line style="stroke:#181818;stroke-width:0.5;" x1="160.5" x2="343.5" y1="369" y2="369"/><rect fill="none" height="6" style="stroke:#C82930;stroke-width:1.0;" width="6" x="167.5" y="379.6484"/><text fill="#000000" font-family="sans-serif" font-size="14" lengthAdjust="spacing" textLength="57" x="179.5" y="385.9951">id: Long</text><rect fill="none" height="6" style="stroke:#C82930;stroke-width:1.0;" width="6" x="167.5" y="395.9453"/><text fill="#000000" font-family="sans-serif" font-size="14" lengthAdjust="spacing" textLength="67" x="179.5" y="402.292">film: Film</text><rect fill="none" height="6" style="stroke:#C82930;stroke-width:1.0;" width="6" x="167.5" y="412.2422"/><text fill="#000000" font-family="sans-serif" font-size="14" lengthAdjust="spacing" textLength="75" x="179.5" y="418.5889">salle: Salle</text><rect fill="none" height="6" style="stroke:#C82930;stroke-width:1.0;" width="6" x="167.5" y="428.5391"/><text fill="#000000" font-family="sans-serif" font-size="14" lengthAdjust="spacing" textLength="77" x="179.5" y="434.8857">date: Date</text><rect fill="none" height="6" style="stroke:#C82930;stroke-width:1.0;" width="6" x="167.5" y="444.8359"/><text fill="#000000" font-family="sans-serif" font-size="14" lengthAdjust="spacing" textLength="159" x="179.5" y="451.1826">placesDisponibles: int</text><rect fill="none" height="6" style="stroke:#C82930;stroke-width:1.0;" width="6" x="167.5" y="461.1328"/><text fill="#000000" font-family="sans-serif" font-size="14" lengthAdjust="spacing" textLength="71" x="179.5" y="467.4795">prix: float</text><line style="stroke:#181818;stroke-width:0.5;" x1="160.5" x2="343.5" y1="474.7813" y2="474.7813"/></g><!--class Salle--><g id="elem_Salle"><rect codeLine="20" fill="#F1F1F1" height="113.1875" id="Salle" rx="2.5" ry="2.5" style="stroke:#181818;stroke-width:0.5;" width="222" x="7" y="139.5"/><ellipse cx="96.75" cy="155.5" fill="#ADD1B2" rx="11" ry="11" style="stroke:#181818;stroke-width:1.0;"/><path d="M99.0938,151.1719 C98.1563,150.7344 97.5625,150.5938 96.6875,150.5938 C94.0625,150.5938 92.0625,152.6719 92.0625,155.3906 L92.0625,156.5156 C92.0625,159.0938 94.1719,160.9844 97.0625,160.9844 C98.2813,160.9844 99.4375,160.6875 100.1875,160.1406 C100.7656,159.7344 101.0938,159.2813 101.0938,158.8906 C101.0938,158.4375 100.7031,158.0469 100.2344,158.0469 C100.0156,158.0469 99.8125,158.125 99.625,158.3125 C99.1719,158.7969 99.1719,158.7969 98.9844,158.8906 C98.5625,159.1563 97.875,159.2813 97.1094,159.2813 C95.0625,159.2813 93.7656,158.1875 93.7656,156.4844 L93.7656,155.3906 C93.7656,153.6094 95.0156,152.2969 96.75,152.2969 C97.3281,152.2969 97.9375,152.4531 98.4063,152.7031 C98.8906,152.9844 99.0625,153.2031 99.1563,153.6094 C99.2188,154.0156 99.25,154.1406 99.3906,154.2656 C99.5313,154.4063 99.7656,154.5156 99.9844,154.5156 C100.25,154.5156 100.5156,154.375 100.6875,154.1563 C100.7969,154 100.8281,153.8125 100.8281,153.3906 L100.8281,151.9688 C100.8281,151.5313 100.8125,151.4063 100.7188,151.25 C100.5625,150.9844 100.2813,150.8438 99.9844,150.8438 C99.6875,150.8438 99.4844,150.9375 99.2656,151.25 L99.0938,151.1719 Z " fill="#000000"/><text fill="#000000" font-family="sans-serif" font-size="14" lengthAdjust="spacing" textLength="34" x="117.25" y="160.3467">Salle</text><line style="stroke:#181818;stroke-width:0.5;" x1="8" x2="228" y1="171.5" y2="171.5"/><rect fill="none" height="6" style="stroke:#C82930;stroke-width:1.0;" width="6" x="15" y="182.1484"/><text fill="#000000" font-family="sans-serif" font-size="14" lengthAdjust="spacing" textLength="57" x="27" y="188.4951">id: Long</text><rect fill="none" height="6" style="stroke:#C82930;stroke-width:1.0;" width="6" x="15" y="198.4453"/><text fill="#000000" font-family="sans-serif" font-size="14" lengthAdjust="spacing" textLength="84" x="27" y="204.792">numero: int</text><rect fill="none" height="6" style="stroke:#C82930;stroke-width:1.0;" width="6" x="15" y="214.7422"/><text fill="#000000" font-family="sans-serif" font-size="14" lengthAdjust="spacing" textLength="91" x="27" y="221.0889">capacite: int</text><rect fill="none" height="6" style="stroke:#C82930;stroke-width:1.0;" width="6" x="15" y="231.0391"/><text fill="#000000" font-family="sans-serif" font-size="14" lengthAdjust="spacing" textLength="196" x="27" y="237.3857">equipements: List&lt;String&gt;</text><line style="stroke:#181818;stroke-width:0.5;" x1="8" x2="228" y1="244.6875" y2="244.6875"/></g><!--class Ticket--><g id="elem_Ticket"><rect codeLine="27" fill="#F1F1F1" height="113.1875" id="Ticket" rx="2.5" ry="2.5" style="stroke:#181818;stroke-width:0.5;" width="157" x="173.5" y="543"/><ellipse cx="224.75" cy="559" fill="#ADD1B2" rx="11" ry="11" style="stroke:#181818;stroke-width:1.0;"/><path d="M227.0938,554.6719 C226.1563,554.2344 225.5625,554.0938 224.6875,554.0938 C222.0625,554.0938 220.0625,556.1719 220.0625,558.8906 L220.0625,560.0156 C220.0625,562.5938 222.1719,564.4844 225.0625,564.4844 C226.2813,564.4844 227.4375,564.1875 228.1875,563.6406 C228.7656,563.2344 229.0938,562.7813 229.0938,562.3906 C229.0938,561.9375 228.7031,561.5469 228.2344,561.5469 C228.0156,561.5469 227.8125,561.625 227.625,561.8125 C227.1719,562.2969 227.1719,562.2969 226.9844,562.3906 C226.5625,562.6563 225.875,562.7813 225.1094,562.7813 C223.0625,562.7813 221.7656,561.6875 221.7656,559.9844 L221.7656,558.8906 C221.7656,557.1094 223.0156,555.7969 224.75,555.7969 C225.3281,555.7969 225.9375,555.9531 226.4063,556.2031 C226.8906,556.4844 227.0625,556.7031 227.1563,557.1094 C227.2188,557.5156 227.25,557.6406 227.3906,557.7656 C227.5313,557.9063 227.7656,558.0156 227.9844,558.0156 C228.25,558.0156 228.5156,557.875 228.6875,557.6563 C228.7969,557.5 228.8281,557.3125 228.8281,556.8906 L228.8281,555.4688 C228.8281,555.0313 228.8125,554.9063 228.7188,554.75 C228.5625,554.4844 228.2813,554.3438 227.9844,554.3438 C227.6875,554.3438 227.4844,554.4375 227.2656,554.75 L227.0938,554.6719 Z " fill="#000000"/><text fill="#000000" font-family="sans-serif" font-size="14" lengthAdjust="spacing" textLength="46" x="245.25" y="563.8467">Ticket</text><line style="stroke:#181818;stroke-width:0.5;" x1="174.5" x2="329.5" y1="575" y2="575"/><rect fill="none" height="6" style="stroke:#C82930;stroke-width:1.0;" width="6" x="181.5" y="585.6484"/><text fill="#000000" font-family="sans-serif" font-size="14" lengthAdjust="spacing" textLength="57" x="193.5" y="591.9951">id: Long</text><rect fill="none" height="6" style="stroke:#C82930;stroke-width:1.0;" width="6" x="181.5" y="601.9453"/><text fill="#000000" font-family="sans-serif" font-size="14" lengthAdjust="spacing" textLength="111" x="193.5" y="608.292">seance: Séance</text><rect fill="none" height="6" style="stroke:#C82930;stroke-width:1.0;" width="6" x="181.5" y="618.2422"/><text fill="#000000" font-family="sans-serif" font-size="14" lengthAdjust="spacing" textLength="128" x="193.5" y="624.5889">nomClient: String</text><rect fill="none" height="6" style="stroke:#C82930;stroke-width:1.0;" width="6" x="181.5" y="634.5391"/><text fill="#000000" font-family="sans-serif" font-size="14" lengthAdjust="spacing" textLength="131" x="193.5" y="640.8857">nombrePlaces: int</text><line style="stroke:#181818;stroke-width:0.5;" x1="174.5" x2="329.5" y1="648.1875" y2="648.1875"/></g><!--class Realisateur--><g id="elem_Realisateur"><rect fill="#F1F1F1" height="48" id="Realisateur" rx="2.5" ry="2.5" style="stroke:#181818;stroke-width:0.5;" width="112" x="265" y="7"/><ellipse cx="280" cy="23" fill="#ADD1B2" rx="11" ry="11" style="stroke:#181818;stroke-width:1.0;"/><path d="M282.3438,18.6719 C281.4063,18.2344 280.8125,18.0938 279.9375,18.0938 C277.3125,18.0938 275.3125,20.1719 275.3125,22.8906 L275.3125,24.0156 C275.3125,26.5938 277.4219,28.4844 280.3125,28.4844 C281.5313,28.4844 282.6875,28.1875 283.4375,27.6406 C284.0156,27.2344 284.3438,26.7813 284.3438,26.3906 C284.3438,25.9375 283.9531,25.5469 283.4844,25.5469 C283.2656,25.5469 283.0625,25.625 282.875,25.8125 C282.4219,26.2969 282.4219,26.2969 282.2344,26.3906 C281.8125,26.6563 281.125,26.7813 280.3594,26.7813 C278.3125,26.7813 277.0156,25.6875 277.0156,23.9844 L277.0156,22.8906 C277.0156,21.1094 278.2656,19.7969 280,19.7969 C280.5781,19.7969 281.1875,19.9531 281.6563,20.2031 C282.1406,20.4844 282.3125,20.7031 282.4063,21.1094 C282.4688,21.5156 282.5,21.6406 282.6406,21.7656 C282.7813,21.9063 283.0156,22.0156 283.2344,22.0156 C283.5,22.0156 283.7656,21.875 283.9375,21.6563 C284.0469,21.5 284.0781,21.3125 284.0781,20.8906 L284.0781,19.4688 C284.0781,19.0313 284.0625,18.9063 283.9688,18.75 C283.8125,18.4844 283.5313,18.3438 283.2344,18.3438 C282.9375,18.3438 282.7344,18.4375 282.5156,18.75 L282.3438,18.6719 Z " fill="#000000"/><text fill="#000000" font-family="sans-serif" font-size="14" lengthAdjust="spacing" textLength="80" x="294" y="27.8467">Realisateur</text><line style="stroke:#181818;stroke-width:0.5;" x1="266" x2="376" y1="39" y2="39"/><line style="stroke:#181818;stroke-width:0.5;" x1="266" x2="376" y1="47" y2="47"/></g><!--class Acteur--><g id="elem_Acteur"><rect fill="#F1F1F1" height="48" id="Acteur" rx="2.5" ry="2.5" style="stroke:#181818;stroke-width:0.5;" width="80" x="412" y="7"/><ellipse cx="427" cy="23" fill="#ADD1B2" rx="11" ry="11" style="stroke:#181818;stroke-width:1.0;"/><path d="M429.3438,18.6719 C428.4063,18.2344 427.8125,18.0938 426.9375,18.0938 C424.3125,18.0938 422.3125,20.1719 422.3125,22.8906 L422.3125,24.0156 C422.3125,26.5938 424.4219,28.4844 427.3125,28.4844 C428.5313,28.4844 429.6875,28.1875 430.4375,27.6406 C431.0156,27.2344 431.3438,26.7813 431.3438,26.3906 C431.3438,25.9375 430.9531,25.5469 430.4844,25.5469 C430.2656,25.5469 430.0625,25.625 429.875,25.8125 C429.4219,26.2969 429.4219,26.2969 429.2344,26.3906 C428.8125,26.6563 428.125,26.7813 427.3594,26.7813 C425.3125,26.7813 424.0156,25.6875 424.0156,23.9844 L424.0156,22.8906 C424.0156,21.1094 425.2656,19.7969 427,19.7969 C427.5781,19.7969 428.1875,19.9531 428.6563,20.2031 C429.1406,20.4844 429.3125,20.7031 429.4063,21.1094 C429.4688,21.5156 429.5,21.6406 429.6406,21.7656 C429.7813,21.9063 430.0156,22.0156 430.2344,22.0156 C430.5,22.0156 430.7656,21.875 430.9375,21.6563 C431.0469,21.5 431.0781,21.3125 431.0781,20.8906 L431.0781,19.4688 C431.0781,19.0313 431.0625,18.9063 430.9688,18.75 C430.8125,18.4844 430.5313,18.3438 430.2344,18.3438 C429.9375,18.3438 429.7344,18.4375 429.5156,18.75 L429.3438,18.6719 Z " fill="#000000"/><text fill="#000000" font-family="sans-serif" font-size="14" lengthAdjust="spacing" textLength="48" x="441" y="27.8467">Acteur</text><line style="stroke:#181818;stroke-width:0.5;" x1="413" x2="491" y1="39" y2="39"/><line style="stroke:#181818;stroke-width:0.5;" x1="413" x2="491" y1="47" y2="47"/></g><!--link Film to Séance--><g id="link_Film_Séance"><path codeLine="34" d="M335.962,277.148 C323.493,296.73 310.225,317.565 298.007,336.753 " fill="none" id="Film-Séance" style="stroke:#181818;stroke-width:1.0;"/><text fill="#000000" font-family="sans-serif" font-size="13" lengthAdjust="spacing" textLength="8" x="323.0602" y="297.1125">1</text><text fill="#000000" font-family="sans-serif" font-size="13" lengthAdjust="spacing" textLength="23" x="278.4038" y="325.8887">0..*</text></g><!--link Salle to Séance--><g id="link_Salle_Séance"><path codeLine="35" d="M153.207,252.701 C169.491,278.463 189.037,309.386 206.429,336.903 " fill="none" id="Salle-Séance" style="stroke:#181818;stroke-width:1.0;"/><text fill="#000000" font-family="sans-serif" font-size="13" lengthAdjust="spacing" textLength="8" x="149.0104" y="272.5891">1</text><text fill="#000000" font-family="sans-serif" font-size="13" lengthAdjust="spacing" textLength="23" x="177.8111" y="326.0534">0..*</text></g><!--link Séance to Ticket--><g id="link_Séance_Ticket"><path codeLine="36" d="M252,483.224 C252,503.032 252,524.194 252,542.91 " fill="none" id="Séance-Ticket" style="stroke:#181818;stroke-width:1.0;"/><text fill="#000000" font-family="sans-serif" font-size="13" lengthAdjust="spacing" textLength="8" x="243.6313" y="502.7488">1</text><text fill="#000000" font-family="sans-serif" font-size="13" lengthAdjust="spacing" textLength="23" x="227.5266" y="531.7619">0..*</text></g><!--link Realisateur to Film--><g id="link_Realisateur_Film"><path codeLine="37" d="M330.316,55.008 C336.712,70.804 345.617,92.796 354.476,114.675 " fill="none" id="Realisateur-Film" style="stroke:#181818;stroke-width:1.0;"/><text fill="#000000" font-family="sans-serif" font-size="13" lengthAdjust="spacing" textLength="23" x="306.7563" y="75.1658">0..*</text><text fill="#000000" font-family="sans-serif" font-size="13" lengthAdjust="spacing" textLength="23" x="327.5551" y="103.8334">0..*</text></g><!--link Acteur to Film--><g id="link_Acteur_Film"><path codeLine="38" d="M442.825,55.008 C436.526,70.804 427.756,92.796 419.031,114.675 " fill="none" id="Acteur-Film" style="stroke:#181818;stroke-width:1.0;"/><text fill="#000000" font-family="sans-serif" font-size="13" lengthAdjust="spacing" textLength="23" x="414.527" y="75.1658">0..*</text><text fill="#000000" font-family="sans-serif" font-size="13" lengthAdjust="spacing" textLength="23" x="397.8595" y="103.8334">0..*</text></g><!--SRC=[TL7BJWGX4Bpp5MIE9hFHAp6R63UUzc1SVu1bUqr71f1c4XFZ1_aT_fWCZrb67GuGgg6wgbffISGVK0_yW_6uUeudmVVMl9HhmE11y4FmE6FI68WOcb20q-YNW0SQXp_VL83HKwH72hTtwRQTFqYD9Di7JnTeopuPKqdhuVjB6WLhSi_HYaY62a1Iwqd8T5IraLFmNTmBuBHKG3iaPmqUDL1hnNby5_oihGoDYebkJOE9rhrjEPHqKc5OH0Hl8peOm8HgE8VLU7r6zGfXhGt158IeYTJcThZN65b_XH_neuV7v3JBY6tIuBkRZlSzxwutcwjkPiiELsfb1ijgLikQiTNAvKqQJ9xy_yKV]--></g></svg>